<?xml version="1.0" encoding="UTF-8" standalone="no"?>
<svg
   xmlns:dc="http://purl.org/dc/elements/1.1/"
   xmlns:cc="http://creativecommons.org/ns#"
   xmlns:rdf="http://www.w3.org/1999/02/22-rdf-syntax-ns#"
   xmlns:svg="http://www.w3.org/2000/svg"
   xmlns="http://www.w3.org/2000/svg"
   xmlns:sodipodi="http://sodipodi.sourceforge.net/DTD/sodipodi-0.dtd"
   xmlns:inkscape="http://www.inkscape.org/namespaces/inkscape"
   height="16"
   viewBox="0 0 16 16"
   width="16"
   version="1.1"
   id="svg38"
   sodipodi:docname="Hole.svg"
   inkscape:version="1.0.1 (3bc2e813f5, 2020-09-07)">
  <metadata
     id="metadata44">
    <rdf:RDF>
      <cc:Work
         rdf:about="">
        <dc:format>image/svg+xml</dc:format>
        <dc:type
           rdf:resource="http://purl.org/dc/dcmitype/StillImage" />
        <dc:title />
      </cc:Work>
    </rdf:RDF>
  </metadata>
  <defs
     id="defs42">
    <inkscape:perspective
       sodipodi:type="inkscape:persp3d"
       inkscape:vp_x="0 : 8 : 1"
       inkscape:vp_y="0 : 1000 : 0"
       inkscape:vp_z="16 : 8 : 1"
       inkscape:persp3d-origin="8 : 5.3333333 : 1"
       id="perspective56" />
  </defs>
  <sodipodi:namedview
     pagecolor="#ffffff"
     bordercolor="#666666"
     borderopacity="1"
     objecttolerance="10"
     gridtolerance="10000"
     guidetolerance="10"
     inkscape:pageopacity="0"
     inkscape:pageshadow="2"
     inkscape:window-width="1368"
     inkscape:window-height="850"
     id="namedview40"
     showgrid="true"
     inkscape:zoom="22.627417"
     inkscape:cx="12.427901"
     inkscape:cy="11.940815"
     inkscape:window-x="-6"
     inkscape:window-y="-6"
     inkscape:window-maximized="1"
     inkscape:current-layer="svg38"
     inkscape:snap-to-guides="false"
     showguides="false"
     inkscape:document-rotation="0">
    <inkscape:grid
       type="xygrid"
       id="grid52" />
  </sodipodi:namedview>
  <rect
     style="fill:#b09fff;fill-opacity:1;stroke-width:0.481421"
     id="rect50"
     width="12"
     height="1"
     x="2"
     y="1" />
  <rect
     style="fill:#b09fff;fill-opacity:1;stroke-width:0.481421"
     id="rect50-7"
     width="12"
     height="1"
     x="2"
     y="14" />
  <rect
     style="fill:#b09fff;fill-opacity:1;stroke-width:0.519994"
     id="rect87"
     width="1"
     height="14"
     x="1"
     y="1" />
  <rect
     style="fill:#b09fff;fill-opacity:1;stroke-width:0.519994"
     id="rect89"
     width="1"
     height="14"
     x="14"
     y="1" />
  <rect
     style="fill:#b09fff;fill-opacity:1;stroke-width:0.340415"
     id="rect958"
     width="6"
     height="1"
     x="5"
     y="4" />
  <path
     style="fill:#b09fff;fill-opacity:1;stroke-width:0.0078125"
     d="M 1,3 V 1 H 3 C 4,4 5,4 6,5 H 5 V 6 C 4,5 4,4 1,3 Z"
     id="path1000"
     sodipodi:nodetypes="ccccccc" />
  <rect
     style="fill:#b09fff;fill-opacity:1;stroke-width:0.340415"
     id="rect1041"
     width="6"
     height="1"
     x="5"
     y="11" />
  <rect
     style="fill:#b09fff;fill-opacity:1;stroke-width:0.393077"
     id="rect1043"
     width="1"
     height="8"
     x="4"
     y="4" />
  <rect
     style="fill:#b09fff;fill-opacity:1;stroke-width:0.393077"
     id="rect1045"
     width="1"
     height="8"
     x="11"
     y="4" />
  <path
     style="fill:#b09fff;fill-opacity:1;stroke-width:0.0078125"
     d="m 13,1 h 2 V 3 C 12,4 12,5 11,6 V 5 h -1 c 1,-1 2,-1 3,-4 z"
     id="path1047"
     sodipodi:nodetypes="ccccccc" />
  <path
     style="fill:#b09fff;fill-opacity:1;stroke-width:0.0078125"
     d="m 15,13 v 2 h -2 c -1,-3 -2,-3 -3,-4 h 1 v -1 c 1,1 1,2 4,3 z"
     id="path1049"
     sodipodi:nodetypes="ccccccc" />
  <path
     style="fill:#b09fff;fill-opacity:1;stroke-width:0.0078125"
     d="M 3,15 H 1 v -2 c 3,-1 3,-2 4,-3 v 1 h 1 c -1,1 -2,1 -3,4 z"
     id="path1051"
     sodipodi:nodetypes="ccccccc" />
</svg>
