<?xml version="1.0" encoding="UTF-8" standalone="no"?>
<svg
   xmlns:dc="http://purl.org/dc/elements/1.1/"
   xmlns:cc="http://creativecommons.org/ns#"
   xmlns:rdf="http://www.w3.org/1999/02/22-rdf-syntax-ns#"
   xmlns:svg="http://www.w3.org/2000/svg"
   xmlns="http://www.w3.org/2000/svg"
   xmlns:sodipodi="http://sodipodi.sourceforge.net/DTD/sodipodi-0.dtd"
   xmlns:inkscape="http://www.inkscape.org/namespaces/inkscape"
   height="16"
   viewBox="0 0 16 16"
   width="16"
   version="1.1"
   id="svg38"
   sodipodi:docname="LaunchPad.svg"
   inkscape:version="1.0.1 (3bc2e813f5, 2020-09-07)">
  <metadata
     id="metadata44">
    <rdf:RDF>
      <cc:Work
         rdf:about="">
        <dc:format>image/svg+xml</dc:format>
        <dc:type
           rdf:resource="http://purl.org/dc/dcmitype/StillImage" />
        <dc:title />
      </cc:Work>
    </rdf:RDF>
  </metadata>
  <defs
     id="defs42">
    <inkscape:perspective
       sodipodi:type="inkscape:persp3d"
       inkscape:vp_x="0 : 8 : 1"
       inkscape:vp_y="0 : 1000 : 0"
       inkscape:vp_z="16 : 8 : 1"
       inkscape:persp3d-origin="8 : 5.3333333 : 1"
       id="perspective56" />
  </defs>
  <sodipodi:namedview
     pagecolor="#ffffff"
     bordercolor="#666666"
     borderopacity="1"
     objecttolerance="10"
     gridtolerance="10000"
     guidetolerance="10"
     inkscape:pageopacity="0"
     inkscape:pageshadow="2"
     inkscape:window-width="1368"
     inkscape:window-height="850"
     id="namedview40"
     showgrid="true"
     inkscape:zoom="22.627417"
     inkscape:cx="10.366036"
     inkscape:cy="7.5682643"
     inkscape:window-x="-6"
     inkscape:window-y="-6"
     inkscape:window-maximized="1"
     inkscape:current-layer="svg38"
     inkscape:snap-to-guides="true"
     showguides="false"
     inkscape:snap-grids="false"
     inkscape:document-rotation="0">
    <inkscape:grid
       type="xygrid"
       id="grid52" />
  </sodipodi:namedview>
  <rect
     style="fill:#b09fff;fill-opacity:1;stroke-width:0.519991"
     id="rect1018"
     width="14"
     height="1"
     x="1"
     y="14"
     ry="0" />
  <rect
     style="fill:#b09fff;fill-opacity:1;stroke-width:0.519991"
     id="rect1022"
     width="14"
     height="1"
     x="1"
     y="-2"
     ry="0"
     transform="rotate(90)" />
  <rect
     style="fill:#b09fff;fill-opacity:1;stroke-width:0.519991"
     id="rect1024"
     width="14"
     height="1"
     x="1"
     y="-15"
     ry="0"
     transform="rotate(90)" />
  <rect
     style="fill:#b09fff;fill-opacity:1"
     id="rect1053"
     width="14"
     height="1"
     x="1"
     y="1"
     ry="0" />
  <path
     style="fill:#b09fff;fill-opacity:1;stroke-width:0.015625"
     d="M 1.6438407,14.430125 1,14 l 0.050221,0.09414 c 0.075073,0.140726 1.5655587,-1.424397 3.4755196,-3.331253 L 7.9983967,7.2958765 11.47104,10.762935 c 1.909954,1.906882 2.994257,2.989047 3.10854,3.104742 L 15,14 14.223996,14.258302 c -0.255955,0.0852 -0.228915,0.452159 -0.237431,0.452159 -0.0085,0 -0.847717,-0.855657 -2.671748,-2.679673 L 7.9983967,8.7143955 4.6819768,12.030788 c -1.824031,1.824016 -2.8942069,2.894517 -2.8985678,2.894517 -0.00436,0 0.1268786,-0.552961 -0.1395683,-0.49518 z"
     id="path1066"
     sodipodi:nodetypes="scsscsscssscsss" />
  <path
     style="fill:#b09fff;fill-opacity:1;stroke-width:0.015625"
     d="M 1.6438407,10.430125 1,10 1.050221,10.09414 C 1.125294,10.234866 2.6157797,8.669743 4.5257406,6.762887 L 7.9983967,3.2958765 11.47104,6.762935 c 1.909954,1.906882 2.994257,2.989047 3.10854,3.104742 L 15,10 14.223996,10.258302 c -0.255955,0.0852 -0.228915,0.452159 -0.237431,0.452159 -0.0085,0 -0.847717,-0.855657 -2.671748,-2.679673 L 7.9983967,4.7143955 4.6819768,8.030788 c -1.824031,1.824016 -2.8942069,2.894517 -2.8985678,2.894517 -0.00436,0 0.1268786,-0.552961 -0.1395683,-0.49518 z"
     id="path1068"
     sodipodi:nodetypes="scsscsscssscsss" />
  <path
     style="fill:#b09fff;fill-opacity:1;stroke-width:0.015625"
     d="M 1.6438407,6.430125 1,6 1.050221,6.09414 C 1.125294,6.234866 5.3654299,1.9231977 5.3654299,1.9231977 L 7.9928724,1.1673858 10.41038,1.9453428 14.57958,5.867677 15,6 14.223996,6.258302 c -0.255955,0.0852 -0.107381,0.5515959 -0.115897,0.5515959 -0.0085,0 -4.2033311,-4.4288325 -4.9201266,-4.8838574 L 7.9928724,1.1673858 6.7535787,1.9868075 C 6.0804699,2.4318675 1.7877699,6.925305 1.783409,6.925305 c -0.00436,0 0.1268786,-0.552961 -0.1395683,-0.49518 z"
     id="path1070"
     sodipodi:nodetypes="scscccccssscsss" />
  <path
     style="fill:#b09fff;fill-opacity:1;stroke-width:0.015625"
     d="M 5.0500907,14.961375 5,15 4,14 c -1,0 0.2882415,1 0.5257406,0.762887 l 3.4726561,-3.46701 3.4179563,3.388933 C 11.734242,15 12,15 11.478018,14.695802 L 12,15 10.934934,14.852052 c -0.267198,-0.03712 -0.408603,-0.06347 -0.417119,-0.06347 -0.0085,0 -1.4956111,-0.987353 -0.495611,0.01265 L 7.9983967,12.714396 5.8851018,14.679226 C 5.5400891,15 5.4283949,14.620618 5.424034,14.620618 c -0.00436,0 -0.1558586,0.177137 -0.3739433,0.340757 z"
     id="path1072"
     sodipodi:nodetypes="sccscsccssccsss" />
</svg>
