<?xml version="1.0" encoding="UTF-8" standalone="no"?>
<svg
   xmlns:dc="http://purl.org/dc/elements/1.1/"
   xmlns:cc="http://creativecommons.org/ns#"
   xmlns:rdf="http://www.w3.org/1999/02/22-rdf-syntax-ns#"
   xmlns:svg="http://www.w3.org/2000/svg"
   xmlns="http://www.w3.org/2000/svg"
   xmlns:sodipodi="http://sodipodi.sourceforge.net/DTD/sodipodi-0.dtd"
   xmlns:inkscape="http://www.inkscape.org/namespaces/inkscape"
   width="96"
   height="96"
   viewBox="0 0 25.399999 25.400001"
   version="1.1"
   id="svg2052"
   inkscape:version="1.0.1 (3bc2e813f5, 2020-09-07)"
   sodipodi:docname="svg_standing.svg">
  <defs
     id="defs2046">
    <inkscape:path-effect
       effect="bspline"
       id="path-effect8276"
       is_visible="true"
       lpeversion="1"
       weight="33.333333"
       steps="2"
       helper_size="0"
       apply_no_weight="true"
       apply_with_weight="true"
       only_selected="false" />
    <inkscape:path-effect
       effect="bspline"
       id="path-effect8274"
       is_visible="true"
       lpeversion="1"
       weight="33.333333"
       steps="2"
       helper_size="0"
       apply_no_weight="true"
       apply_with_weight="true"
       only_selected="false" />
    <inkscape:path-effect
       effect="bspline"
       id="path-effect8272"
       is_visible="true"
       lpeversion="1"
       weight="33.333333"
       steps="2"
       helper_size="0"
       apply_no_weight="true"
       apply_with_weight="true"
       only_selected="false" />
    <inkscape:path-effect
       effect="bspline"
       id="path-effect8257"
       is_visible="true"
       lpeversion="1"
       weight="33.333333"
       steps="2"
       helper_size="0"
       apply_no_weight="true"
       apply_with_weight="true"
       only_selected="false" />
    <inkscape:path-effect
       effect="bspline"
       id="path-effect8238"
       is_visible="true"
       lpeversion="1"
       weight="33.333333"
       steps="2"
       helper_size="0"
       apply_no_weight="true"
       apply_with_weight="true"
       only_selected="false" />
    <inkscape:path-effect
       effect="bspline"
       id="path-effect8234"
       is_visible="true"
       lpeversion="1"
       weight="33.333333"
       steps="2"
       helper_size="0"
       apply_no_weight="true"
       apply_with_weight="true"
       only_selected="false" />
    <inkscape:path-effect
       effect="bspline"
       id="path-effect8215"
       is_visible="true"
       lpeversion="1"
       weight="33.333333"
       steps="2"
       helper_size="0"
       apply_no_weight="true"
       apply_with_weight="true"
       only_selected="false" />
    <inkscape:path-effect
       effect="bspline"
       id="path-effect8209"
       is_visible="true"
       lpeversion="1"
       weight="33.333333"
       steps="2"
       helper_size="0"
       apply_no_weight="true"
       apply_with_weight="true"
       only_selected="false" />
    <inkscape:path-effect
       effect="bspline"
       id="path-effect8192"
       is_visible="true"
       lpeversion="1"
       weight="33.333333"
       steps="2"
       helper_size="0"
       apply_no_weight="true"
       apply_with_weight="true"
       only_selected="false" />
    <inkscape:path-effect
       effect="bspline"
       id="path-effect8188"
       is_visible="true"
       lpeversion="1"
       weight="33.333333"
       steps="2"
       helper_size="0"
       apply_no_weight="true"
       apply_with_weight="true"
       only_selected="false" />
    <inkscape:path-effect
       effect="bspline"
       id="path-effect8186"
       is_visible="true"
       lpeversion="1"
       weight="33.333333"
       steps="2"
       helper_size="0"
       apply_no_weight="true"
       apply_with_weight="true"
       only_selected="false" />
    <inkscape:path-effect
       effect="bspline"
       id="path-effect8156"
       is_visible="true"
       lpeversion="1"
       weight="33.333333"
       steps="2"
       helper_size="0"
       apply_no_weight="true"
       apply_with_weight="true"
       only_selected="false" />
    <inkscape:path-effect
       effect="bspline"
       id="path-effect8154"
       is_visible="true"
       lpeversion="1"
       weight="33.333333"
       steps="2"
       helper_size="0"
       apply_no_weight="true"
       apply_with_weight="true"
       only_selected="false" />
    <inkscape:path-effect
       effect="bspline"
       id="path-effect8137"
       is_visible="true"
       lpeversion="1"
       weight="33.333333"
       steps="2"
       helper_size="0"
       apply_no_weight="true"
       apply_with_weight="true"
       only_selected="false" />
    <inkscape:path-effect
       effect="bspline"
       id="path-effect8118"
       is_visible="true"
       lpeversion="1"
       weight="33.333333"
       steps="2"
       helper_size="0"
       apply_no_weight="true"
       apply_with_weight="true"
       only_selected="false" />
    <inkscape:path-effect
       effect="bspline"
       id="path-effect8114"
       is_visible="true"
       lpeversion="1"
       weight="33.333333"
       steps="2"
       helper_size="0"
       apply_no_weight="true"
       apply_with_weight="true"
       only_selected="false" />
    <inkscape:path-effect
       effect="bspline"
       id="path-effect8107"
       is_visible="true"
       lpeversion="1"
       weight="33.333333"
       steps="2"
       helper_size="0"
       apply_no_weight="true"
       apply_with_weight="true"
       only_selected="false" />
    <inkscape:path-effect
       effect="bspline"
       id="path-effect8103"
       is_visible="true"
       lpeversion="1"
       weight="33.333333"
       steps="2"
       helper_size="0"
       apply_no_weight="true"
       apply_with_weight="true"
       only_selected="false" />
    <inkscape:path-effect
       effect="bspline"
       id="path-effect8099"
       is_visible="true"
       lpeversion="1"
       weight="33.333333"
       steps="2"
       helper_size="0"
       apply_no_weight="true"
       apply_with_weight="true"
       only_selected="false" />
    <inkscape:path-effect
       effect="bspline"
       id="path-effect8077"
       is_visible="true"
       lpeversion="1"
       weight="33.333333"
       steps="2"
       helper_size="0"
       apply_no_weight="true"
       apply_with_weight="true"
       only_selected="false" />
    <inkscape:path-effect
       effect="bspline"
       id="path-effect8058"
       is_visible="true"
       lpeversion="1"
       weight="33.333333"
       steps="2"
       helper_size="0"
       apply_no_weight="true"
       apply_with_weight="true"
       only_selected="false" />
  </defs>
  <sodipodi:namedview
     id="base"
     pagecolor="#ffffff"
     bordercolor="#666666"
     borderopacity="1.0"
     inkscape:pageopacity="0.0"
     inkscape:pageshadow="2"
     inkscape:zoom="5.4579805"
     inkscape:cx="36.747007"
     inkscape:cy="42.694623"
     inkscape:document-units="px"
     inkscape:current-layer="layer1"
     inkscape:document-rotation="0"
     showgrid="true"
     inkscape:pagecheckerboard="true"
     units="px"
     inkscape:window-width="1663"
     inkscape:window-height="1377"
     inkscape:window-x="1912"
     inkscape:window-y="0"
     inkscape:window-maximized="0">
    <inkscape:grid
       type="xygrid"
       id="grid2054"
       empspacing="8" />
  </sodipodi:namedview>
  <metadata
     id="metadata2049">
    <rdf:RDF>
      <cc:Work
         rdf:about="">
        <dc:format>image/svg+xml</dc:format>
        <dc:type
           rdf:resource="http://purl.org/dc/dcmitype/StillImage" />
        <dc:title></dc:title>
      </cc:Work>
    </rdf:RDF>
  </metadata>
  <g
     inkscape:groupmode="layer"
     id="layer3"
     inkscape:label="Legs" />
  <g
     inkscape:groupmode="layer"
     id="layer2"
     inkscape:label="Arms"
     style="display:inline" />
  <g
     inkscape:label="Body"
     inkscape:groupmode="layer"
     id="layer1"
     style="display:inline">
    <g
       id="g8262"
       transform="matrix(1.5775055,0,0,1.6191137,-5.6647923,5.8457522)">
      <path
         style="fill:#2c2c2d;fill-opacity:1;stroke:#000000;stroke-width:0.132292;stroke-linecap:butt;stroke-linejoin:miter;stroke-miterlimit:4;stroke-dasharray:none;stroke-opacity:1"
         d="m 14.816667,2.1166667 c 0.353074,-1e-7 1.057961,-1e-7 1.410776,0 0.352816,0 0.352816,0 0.352816,-0.3528835 0,-0.3528835 0,-1.05843359 -0.352411,-1.41110839 C 15.875438,1.6666663e-8 15.168938,1.6666663e-8 14.816265,0.35267311 14.463592,0.70534621 14.463592,1.410899 14.463592,1.7637828 c 0,0.3528839 0,0.3528839 0.353075,0.3528839 z"
         id="path8213"
         inkscape:path-effect="#path-effect8215"
         inkscape:original-d="m 14.463592,2.1166666 c 0.706149,2.646e-4 1.411036,2.646e-4 2.116667,0 2.65e-4,2.646e-4 2.65e-4,2.646e-4 0,1e-7 2.65e-4,-0.705767 2.65e-4,-1.41131709 0,-2.116666683333337 C 15.875438,2.646e-4 15.168938,2.646e-4 14.463592,1.6666663e-8 14.463857,0.70534621 14.463857,1.410899 14.463592,2.1166667 c 2.65e-4,2.645e-4 2.65e-4,2.645e-4 0,-1e-7 z"
         sodipodi:nodetypes="ccccccc" />
      <path
         style="fill:#2c2c2d;fill-opacity:1;stroke:#000000;stroke-width:0.132292;stroke-linecap:butt;stroke-linejoin:miter;stroke-miterlimit:4;stroke-dasharray:none;stroke-opacity:1"
         d="m 14.816667,7.1437499 c 0.353074,0 1.057961,0 1.410776,0 0.352816,10e-8 0.352816,10e-8 0.352816,-0.3528834 0,-0.3528835 0,-1.0584335 -0.352411,-1.4111083 -0.35241,-0.3526748 -1.05891,-0.3526748 -1.411583,-1.7e-6 -0.352673,0.3526731 -0.352673,1.0582258 -0.352673,1.4111097 0,0.3528838 0,0.3528838 0.353075,0.3528837 z"
         id="path8236"
         inkscape:path-effect="#path-effect8238"
         inkscape:original-d="m 14.463592,7.1437499 c 0.706149,2.646e-4 1.411036,2.646e-4 2.116667,0 2.65e-4,2.646e-4 2.65e-4,2.646e-4 0,10e-8 2.65e-4,-0.705767 2.65e-4,-1.411317 0,-2.1166666 -0.704821,2.645e-4 -1.411321,2.645e-4 -2.116667,0 2.65e-4,0.7053462 2.65e-4,1.4108989 0,2.1166666 2.65e-4,2.645e-4 2.65e-4,2.645e-4 0,-10e-8 z"
         sodipodi:nodetypes="ccccccc" />
      <path
         style="fill:#4f4d76;fill-opacity:1;stroke:#000000;stroke-width:0.11423;stroke-linecap:butt;stroke-linejoin:miter;stroke-miterlimit:4;stroke-dasharray:none;stroke-opacity:1"
         d="m 14.816666,1.5875 c -0.352838,0.065841 -0.352837,0.1973666 -0.352837,0.9207525 0,0.7233858 0,2.0382922 0,2.7616518 0,0.7233596 -1e-6,0.8547985 0.353082,0.9204886 0.353083,0.06569 1.057833,0.06569 1.410708,-1.05e-5 0.352876,-0.065701 0.352876,-0.1971476 0.352876,-0.9203486 0,-0.723201 0,-2.0377745 0,-2.7615018 0,-0.7237272 0,-0.8552548 -0.352404,-0.9210641 -0.352403,-0.065809 -1.058587,-0.065809 -1.411425,3.21e-5 z"
         id="path8207"
         inkscape:path-effect="#path-effect8257"
         inkscape:original-d="m 14.463828,1.5216587 c 2.65e-4,0.1316826 2.65e-4,0.2632079 1e-6,0.3945357 2.64e-4,1.3154439 2.64e-4,2.6303503 0,3.9453525 2.64e-4,0.131717 2.64e-4,0.2631559 -1e-6,0.3945361 0.706166,1.968e-4 1.410916,1.968e-4 2.116667,0 2.65e-4,-0.1314011 2.65e-4,-0.2628482 0,-0.3945361 2.65e-4,-1.3147141 2.65e-4,-2.6292876 0,-3.9453525 2.65e-4,-0.1313896 2.65e-4,-0.2629172 0,-0.3945357 -0.704807,1.976e-4 -1.410991,1.976e-4 -2.116667,0 z"
         sodipodi:nodetypes="ccccccccc" />
    </g>
    <g
       id="g8270"
       transform="matrix(1.5775055,0,0,1.6191137,-17.768861,5.8457522)">
      <path
         style="fill:#2c2c2d;fill-opacity:1;stroke:#000000;stroke-width:0.132292;stroke-linecap:butt;stroke-linejoin:miter;stroke-miterlimit:4;stroke-dasharray:none;stroke-opacity:1"
         d="m 14.816667,2.1166667 c 0.353074,-1e-7 1.057961,-1e-7 1.410776,0 0.352816,0 0.352816,0 0.352816,-0.3528835 0,-0.3528835 0,-1.05843359 -0.352411,-1.41110839 C 15.875438,1.6666663e-8 15.168938,1.6666663e-8 14.816265,0.35267311 14.463592,0.70534621 14.463592,1.410899 14.463592,1.7637828 c 0,0.3528839 0,0.3528839 0.353075,0.3528839 z"
         id="path8264"
         inkscape:path-effect="#path-effect8272"
         inkscape:original-d="m 14.463592,2.1166666 c 0.706149,2.646e-4 1.411036,2.646e-4 2.116667,0 2.65e-4,2.646e-4 2.65e-4,2.646e-4 0,1e-7 2.65e-4,-0.705767 2.65e-4,-1.41131709 0,-2.116666683333337 C 15.875438,2.646e-4 15.168938,2.646e-4 14.463592,1.6666663e-8 14.463857,0.70534621 14.463857,1.410899 14.463592,2.1166667 c 2.65e-4,2.645e-4 2.65e-4,2.645e-4 0,-1e-7 z"
         sodipodi:nodetypes="ccccccc" />
      <path
         style="fill:#2c2c2d;fill-opacity:1;stroke:#000000;stroke-width:0.132292;stroke-linecap:butt;stroke-linejoin:miter;stroke-miterlimit:4;stroke-dasharray:none;stroke-opacity:1"
         d="m 14.816667,7.1437499 c 0.353074,0 1.057961,0 1.410776,0 0.352816,10e-8 0.352816,10e-8 0.352816,-0.3528834 0,-0.3528835 0,-1.0584335 -0.352411,-1.4111083 -0.35241,-0.3526748 -1.05891,-0.3526748 -1.411583,-1.7e-6 -0.352673,0.3526731 -0.352673,1.0582258 -0.352673,1.4111097 0,0.3528838 0,0.3528838 0.353075,0.3528837 z"
         id="path8266"
         inkscape:path-effect="#path-effect8274"
         inkscape:original-d="m 14.463592,7.1437499 c 0.706149,2.646e-4 1.411036,2.646e-4 2.116667,0 2.65e-4,2.646e-4 2.65e-4,2.646e-4 0,10e-8 2.65e-4,-0.705767 2.65e-4,-1.411317 0,-2.1166666 -0.704821,2.645e-4 -1.411321,2.645e-4 -2.116667,0 2.65e-4,0.7053462 2.65e-4,1.4108989 0,2.1166666 2.65e-4,2.645e-4 2.65e-4,2.645e-4 0,-10e-8 z"
         sodipodi:nodetypes="ccccccc" />
      <path
         style="fill:#4f4d76;fill-opacity:1;stroke:#000000;stroke-width:0.11423;stroke-linecap:butt;stroke-linejoin:miter;stroke-miterlimit:4;stroke-dasharray:none;stroke-opacity:1"
         d="m 14.816666,1.5875 c -0.352838,0.065841 -0.352837,0.1973666 -0.352837,0.9207525 0,0.7233858 0,2.0382922 0,2.7616518 0,0.7233596 -1e-6,0.8547985 0.353082,0.9204886 0.353083,0.06569 1.057833,0.06569 1.410708,-1.05e-5 0.352876,-0.065701 0.352876,-0.1971476 0.352876,-0.9203486 0,-0.723201 0,-2.0377745 0,-2.7615018 0,-0.7237272 0,-0.8552548 -0.352404,-0.9210641 -0.352403,-0.065809 -1.058587,-0.065809 -1.411425,3.21e-5 z"
         id="path8268"
         inkscape:path-effect="#path-effect8276"
         inkscape:original-d="m 14.463828,1.5216587 c 2.65e-4,0.1316826 2.65e-4,0.2632079 1e-6,0.3945357 2.64e-4,1.3154439 2.64e-4,2.6303503 0,3.9453525 2.64e-4,0.131717 2.64e-4,0.2631559 -1e-6,0.3945361 0.706166,1.968e-4 1.410916,1.968e-4 2.116667,0 2.65e-4,-0.1314011 2.65e-4,-0.2628482 0,-0.3945361 2.65e-4,-1.3147141 2.65e-4,-2.6292876 0,-3.9453525 2.65e-4,-0.1313896 2.65e-4,-0.2629172 0,-0.3945357 -0.704807,1.976e-4 -1.410991,1.976e-4 -2.116667,0 z"
         sodipodi:nodetypes="ccccccccc" />
    </g>
    <g
       id="g8146"
       transform="matrix(1.5775055,0,0,1.6191137,-10.673373,-5.2924008)"
       style="display:inline">
      <path
         style="fill:#eee1cc;fill-opacity:1;stroke:#000000;stroke-width:0.299976px;stroke-linecap:butt;stroke-linejoin:miter;stroke-opacity:1"
         d="M 21.695833,9.525 C 21.750021,9.2835326 21.858462,8.8003085 21.89602,8.4027174 21.933578,8.0051263 21.900148,7.6930946 21.795918,7.4665863 21.691687,7.2400781 21.516388,7.0992291 21.280982,6.9955542 21.045576,6.8918793 20.750097,6.8255703 20.492934,6.8185851 20.235772,6.8116 20.017098,6.8640371 19.896813,6.9387408 c -0.120285,0.074704 -0.141975,0.1713468 -0.114268,0.2790783 0.02771,0.1077316 0.104511,0.2264767 0.301487,0.2704954 0.196975,0.044019 0.514141,0.013685 0.700241,0.1064204 0.186099,0.092736 0.241216,0.3081242 0.219623,0.4046068 -0.02159,0.096483 -0.120083,0.07438 -0.207767,0.0041 -0.08768,-0.070283 -0.164489,-0.1890276 -0.25211,-0.2595989 -0.08762,-0.070571 -0.186112,-0.092674 -0.295597,-0.066489 -0.109484,0.026185 -0.229664,0.1007243 -0.300637,0.1864659 -0.07097,0.085741 -0.09266,0.1823819 -0.06496,0.2901142 0.02771,0.1077322 0.104512,0.2264779 0.110234,0.4307893 0.0057,0.2043113 -0.05934,0.4942392 0.203798,0.7054063 0.263139,0.2111671 0.854098,0.3437853 1.149436,0.4100625 0.295337,0.066277 0.295347,0.066278 0.349535,-0.1751894 z"
         id="path8116"
         inkscape:path-effect="#path-effect8118"
         inkscape:original-d="m 21.641645,9.7664674 c 0.108672,-0.4828684 0.217113,-0.9660925 0.325323,-1.4496731 -0.0332,-0.3116884 -0.06663,-0.62372 -0.10029,-0.9361142 -0.175074,-0.1404989 -0.350373,-0.2813472 -0.525906,-0.4225554 -0.295261,-0.065955 -0.59074,-0.1322643 -0.886455,-0.198931 -0.218452,0.052796 -0.437126,0.1052325 -0.656034,0.1573142 -0.02146,0.097003 -0.04315,0.1936459 -0.06507,0.2899346 0.07704,0.1191076 0.153844,0.2378529 0.230419,0.3562447 0.317411,-0.02998 0.634577,-0.060313 0.951521,-0.091004 0.05535,0.2157538 0.110467,0.4311425 0.165355,0.6461794 -0.09827,-0.021748 -0.19676,-0.04385 -0.295484,-0.06631 -0.07658,-0.1183953 -0.153384,-0.2371407 -0.230421,-0.3562449 -0.09827,-0.021748 -0.196761,-0.043851 -0.295486,-0.066311 -0.119956,0.074899 -0.240136,0.149439 -0.360549,0.2236243 -0.02146,0.097004 -0.04314,0.1936464 -0.06507,0.2899345 0.07704,0.1191076 0.153845,0.2378532 0.23042,0.3562451 -0.06484,0.2902967 -0.129899,0.5802255 -0.195194,0.8698039 0.591212,0.1329794 1.182171,0.2655976 1.772911,0.3978621 z" />
      <path
         style="fill:#a9caed;fill-opacity:1;stroke:#000000;stroke-width:0.165405;stroke-linecap:butt;stroke-linejoin:miter;stroke-miterlimit:4;stroke-dasharray:none;stroke-opacity:1"
         d="m 19.579167,9.7895836 c 0,0.8867234 0,2.6552094 0.439016,3.5392534 0.439015,0.884045 1.316682,0.884045 1.757489,-1.8e-5 0.440807,-0.884063 0.445067,-2.652513 0.44519,-3.5392307 1.22e-4,-0.886718 -0.0042,-0.8915588 -0.445085,-0.8940985 -0.44093,-0.00254 -1.318596,-0.00254 -1.757603,5.3e-6 -0.439007,0.00254 -0.439007,0.00737 -0.439007,0.8940885 z"
         id="path8112"
         inkscape:path-effect="#path-effect8137"
         inkscape:original-d="m 19.579167,8.9074161 c 2.64e-4,1.7688909 2.64e-4,3.5373769 0,5.3054659 0.878031,3.44e-4 1.755698,3.44e-4 2.633053,0 0.0045,-1.768125 0.0088,-3.536575 0.01278,-5.3054659 -0.004,-0.00456 -0.0083,-0.00938 -0.01278,-0.014466 -0.877373,3.31e-4 -1.755039,3.31e-4 -2.633053,0 2.64e-4,0.00509 2.64e-4,0.00991 0,0.014466 z"
         sodipodi:nodetypes="ccccccc" />
    </g>
    <g
       id="g8152"
       transform="matrix(-1.5775055,0,0,1.6191137,36.073364,-6.1491861)"
       style="display:inline">
      <path
         style="fill:#eee1cc;fill-opacity:1;stroke:#000000;stroke-width:0.299976px;stroke-linecap:butt;stroke-linejoin:miter;stroke-opacity:1"
         d="M 21.695833,9.525 C 21.750021,9.2835326 21.858462,8.8003085 21.89602,8.4027174 21.933578,8.0051263 21.900148,7.6930946 21.795918,7.4665863 21.691687,7.2400781 21.516388,7.0992291 21.280982,6.9955542 21.045576,6.8918793 20.750097,6.8255703 20.492934,6.8185851 20.235772,6.8116 20.017098,6.8640371 19.896813,6.9387408 c -0.120285,0.074704 -0.141975,0.1713468 -0.114268,0.2790783 0.02771,0.1077316 0.104511,0.2264767 0.301487,0.2704954 0.196975,0.044019 0.514141,0.013685 0.700241,0.1064204 0.186099,0.092736 0.241216,0.3081242 0.219623,0.4046068 -0.02159,0.096483 -0.120083,0.07438 -0.207767,0.0041 -0.08768,-0.070283 -0.164489,-0.1890276 -0.25211,-0.2595989 -0.08762,-0.070571 -0.186112,-0.092674 -0.295597,-0.066489 -0.109484,0.026185 -0.229664,0.1007243 -0.300637,0.1864659 -0.07097,0.085741 -0.09266,0.1823819 -0.06496,0.2901142 0.02771,0.1077322 0.104512,0.2264779 0.110234,0.4307893 0.0057,0.2043113 -0.05934,0.4942392 0.203798,0.7054063 0.263139,0.2111671 0.854098,0.3437853 1.149436,0.4100625 0.295337,0.066277 0.295347,0.066278 0.349535,-0.1751894 z"
         id="path8148"
         inkscape:path-effect="#path-effect8154"
         inkscape:original-d="m 21.641645,9.7664674 c 0.108672,-0.4828684 0.217113,-0.9660925 0.325323,-1.4496731 -0.0332,-0.3116884 -0.06663,-0.62372 -0.10029,-0.9361142 -0.175074,-0.1404989 -0.350373,-0.2813472 -0.525906,-0.4225554 -0.295261,-0.065955 -0.59074,-0.1322643 -0.886455,-0.198931 -0.218452,0.052796 -0.437126,0.1052325 -0.656034,0.1573142 -0.02146,0.097003 -0.04315,0.1936459 -0.06507,0.2899346 0.07704,0.1191076 0.153844,0.2378529 0.230419,0.3562447 0.317411,-0.02998 0.634577,-0.060313 0.951521,-0.091004 0.05535,0.2157538 0.110467,0.4311425 0.165355,0.6461794 -0.09827,-0.021748 -0.19676,-0.04385 -0.295484,-0.06631 -0.07658,-0.1183953 -0.153384,-0.2371407 -0.230421,-0.3562449 -0.09827,-0.021748 -0.196761,-0.043851 -0.295486,-0.066311 -0.119956,0.074899 -0.240136,0.149439 -0.360549,0.2236243 -0.02146,0.097004 -0.04314,0.1936464 -0.06507,0.2899345 0.07704,0.1191076 0.153845,0.2378532 0.23042,0.3562451 -0.06484,0.2902967 -0.129899,0.5802255 -0.195194,0.8698039 0.591212,0.1329794 1.182171,0.2655976 1.772911,0.3978621 z" />
      <path
         style="fill:#a9caed;fill-opacity:1;stroke:#000000;stroke-width:0.165405;stroke-linecap:butt;stroke-linejoin:miter;stroke-miterlimit:4;stroke-dasharray:none;stroke-opacity:1"
         d="m 19.579167,9.7895836 c 0,0.8867234 0,2.6552094 0.439016,3.5392534 0.439015,0.884045 1.316682,0.884045 1.757489,-1.8e-5 0.440807,-0.884063 0.445067,-2.652513 0.44519,-3.5392307 1.22e-4,-0.886718 -0.0042,-0.8915588 -0.445085,-0.8940985 -0.44093,-0.00254 -1.318596,-0.00254 -1.757603,5.3e-6 -0.439007,0.00254 -0.439007,0.00737 -0.439007,0.8940885 z"
         id="path8150"
         inkscape:path-effect="#path-effect8156"
         inkscape:original-d="m 19.579167,8.9074161 c 2.64e-4,1.7688909 2.64e-4,3.5373769 0,5.3054659 0.878031,3.44e-4 1.755698,3.44e-4 2.633053,0 0.0045,-1.768125 0.0088,-3.536575 0.01278,-5.3054659 -0.004,-0.00456 -0.0083,-0.00938 -0.01278,-0.014466 -0.877373,3.31e-4 -1.755039,3.31e-4 -2.633053,0 2.64e-4,0.00509 2.64e-4,0.00991 0,0.014466 z"
         sodipodi:nodetypes="ccccccc" />
    </g>
    <g
       id="g8142"
       transform="matrix(1.5775055,0,0,1.6191137,-7.3343199,-8.7195255)">
      <path
         style="fill:#a9caed;fill-opacity:1;stroke:#000000;stroke-width:0.132292;stroke-linecap:butt;stroke-linejoin:miter;stroke-miterlimit:4;stroke-dasharray:none;stroke-opacity:1"
         d="m 12.7,13.229167 c 1.026218,-1.55e-4 2.052545,0.376168 2.822291,0.564346 0.769746,0.188178 1.282868,0.188131 1.796041,-1.05e-4 0.513172,-0.188237 1.026221,-0.564684 1.026091,-1.129434 -1.29e-4,-0.564749 -0.513378,-1.31752 -1.539737,-1.69375 -1.02636,-0.37623 -2.565725,-0.37609 -4.105151,-0.375951 -1.539427,1.39e-4 -3.0787926,2.78e-4 -4.1048998,0.376791 -1.0261073,0.376512 -1.5391028,1.129375 -1.5391066,1.693932 -3.9e-6,0.564556 0.5131817,0.940919 1.0263554,1.129155 0.5131736,0.188236 1.0262957,0.188189 1.7960065,-6.9e-5 C 10.647601,13.605823 11.673782,13.229322 12.7,13.229167 Z"
         id="path8075"
         inkscape:path-effect="#path-effect8186"
         inkscape:original-d="m 12.700106,12.852768 c 1.026135,0.376182 2.052462,0.752505 3.078982,1.128969 0.512949,-1.87e-4 1.026071,-2.34e-4 1.539395,-1.39e-4 0.512886,-0.376611 1.025935,-0.753058 1.539206,-1.129386 -0.513461,-0.752942 -1.026709,-1.505713 -1.539775,-2.258357 -1.539588,-2e-6 -3.078953,1.37e-4 -4.618187,4.18e-4 -1.539619,-3e-6 -3.0789846,1.36e-4 -4.6181879,4.17e-4 -0.5132081,0.752752 -1.0262037,1.505615 -1.5390169,2.258634 0.5130028,0.376228 1.0261881,0.752591 1.5395857,1.129109 0.5129497,-1.88e-4 1.0260718,-2.34e-4 1.5393961,-1.39e-4 1.026029,-0.376657 2.052209,-0.753159 3.078602,-1.129526 z"
         sodipodi:nodetypes="ccccccccccc" />
      <path
         style="fill:#a9caed;fill-opacity:1;stroke:#000000;stroke-width:0.132292;stroke-linecap:butt;stroke-linejoin:miter;stroke-miterlimit:4;stroke-dasharray:none;stroke-opacity:1"
         d="M 11.993635,13.053171 C 11.288054,12.70084 9.8765764,11.996019 8.818026,11.643712 c -1.0585503,-0.352306 -1.7640916,-0.35194 -2.4696029,0.0012 -0.7055113,0.353151 -1.410672,1.059046 -1.4100415,2.117559 6.305e-4,1.058513 0.7069059,2.469228 2.1184361,3.17389 1.4115303,0.704663 3.5281563,0.703563 5.6448643,0.702463 2.116708,-0.0011 4.233333,-0.0022 5.643925,-0.70845 1.410592,-0.70625 2.1154,-2.117699 2.115008,-3.175953 -3.92e-4,-1.058253 -0.706301,-1.763427 -1.412054,-2.115977 -0.705753,-0.35255 -1.411295,-0.352184 -2.469538,0.0011 -1.058243,0.353308 -2.468959,1.059584 -3.174384,1.412755 -0.705424,0.353171 -0.705424,0.353166 -1.411004,8.35e-4 z"
         id="path8056"
         inkscape:path-effect="#path-effect8188"
         inkscape:original-d="m 12.699215,13.405502 c -1.411214,-0.704556 -2.8226917,-1.409377 -4.2344347,-2.114463 -0.7053045,6.31e-4 -1.4108458,9.98e-4 -2.1166661,0.0011 -0.7049376,0.706201 -1.4100978,1.412096 -2.1155651,2.117767 0.7065685,1.411037 1.412844,2.821752 2.1188687,4.23223 2.1169303,-8.37e-4 4.2335562,-0.0019 6.3500002,-0.0033 2.116972,-8.38e-4 4.233597,-0.0019 6.349999,-0.0033 0.7051,-1.411241 1.409907,-2.822691 2.114464,-4.234433 -0.705658,-0.704923 -1.411567,-1.410097 -2.117768,-2.115564 -0.705305,6.31e-4 -1.410847,9.98e-4 -2.116667,0.0011 -1.410507,0.706568 -2.821223,1.412844 -4.232231,2.118868 z"
         sodipodi:nodetypes="ccccccccccc" />
      <path
         sodipodi:type="star"
         style="fill:#191e30;fill-opacity:1;stroke:#000000;stroke-width:0.132292;stroke-miterlimit:4;stroke-dasharray:none;stroke-opacity:1"
         id="path7493"
         sodipodi:sides="5"
         sodipodi:cx="12.699787"
         sodipodi:cy="13.405501"
         sodipodi:r1="4.2333331"
         sodipodi:r2="3.4248385"
         sodipodi:arg1="-1.5707963"
         sodipodi:arg2="-0.9424778"
         inkscape:flatsided="true"
         inkscape:rounded="0.05"
         inkscape:randomized="0"
         inkscape:transform-center-y="-0.34940073"
         d="m 12.699787,9.1721683 c 0.248829,0 3.949247,2.6885107 4.026139,2.9251617 0.07689,0.23665 -1.336541,4.586752 -1.537848,4.73301 -0.201307,0.146258 -4.775275,0.146258 -4.976582,0 -0.201307,-0.146258 -1.6147403,-4.49636 -1.5378479,-4.733011 0.076893,-0.23665 3.7773099,-2.9251608 4.0261389,-2.9251607 z" />
    </g>
  </g>
</svg>
