<?xml version="1.0" encoding="UTF-8" standalone="no"?>
<svg
   xmlns:dc="http://purl.org/dc/elements/1.1/"
   xmlns:cc="http://creativecommons.org/ns#"
   xmlns:rdf="http://www.w3.org/1999/02/22-rdf-syntax-ns#"
   xmlns:svg="http://www.w3.org/2000/svg"
   xmlns="http://www.w3.org/2000/svg"
   xmlns:sodipodi="http://sodipodi.sourceforge.net/DTD/sodipodi-0.dtd"
   xmlns:inkscape="http://www.inkscape.org/namespaces/inkscape"
   width="96"
   height="96"
   viewBox="0 0 25.399999 25.400001"
   version="1.1"
   id="svg2052"
   inkscape:version="1.0.1 (3bc2e813f5, 2020-09-07)"
   sodipodi:docname="svg_button_base.svg">
  <defs
     id="defs2046" />
  <sodipodi:namedview
     id="base"
     pagecolor="#ffffff"
     bordercolor="#666666"
     borderopacity="1.0"
     inkscape:pageopacity="0.0"
     inkscape:pageshadow="2"
     inkscape:zoom="7.71875"
     inkscape:cx="37.328322"
     inkscape:cy="55.340019"
     inkscape:document-units="px"
     inkscape:current-layer="layer1"
     inkscape:document-rotation="0"
     showgrid="true"
     inkscape:pagecheckerboard="true"
     units="px"
     inkscape:window-width="1760"
     inkscape:window-height="1368"
     inkscape:window-x="1913"
     inkscape:window-y="0"
     inkscape:window-maximized="0"
     inkscape:snap-grids="true"
     inkscape:object-nodes="true"
     inkscape:snap-smooth-nodes="false">
    <inkscape:grid
       type="xygrid"
       id="grid2054"
       empspacing="8" />
  </sodipodi:namedview>
  <metadata
     id="metadata2049">
    <rdf:RDF>
      <cc:Work
         rdf:about="">
        <dc:format>image/svg+xml</dc:format>
        <dc:type
           rdf:resource="http://purl.org/dc/dcmitype/StillImage" />
        <dc:title></dc:title>
      </cc:Work>
    </rdf:RDF>
  </metadata>
  <g
     inkscape:label="Layer 1"
     inkscape:groupmode="layer"
     id="layer1">
    <path
       style="fill:#000000;stroke-width:0.0346759"
       d="M 2.1078851,23.294779 0,21.189556 V 12.682462 4.175365 L 2.090749,2.0876825 4.1814977,0 h 8.5013663 8.501365 L 23.292115,2.1052215 25.4,4.2104433 v 8.4897687 8.489769 L 23.291902,23.29499 21.183805,25.4 H 12.699788 4.21577 Z"
       id="path5322" />
    <path
       style="fill:#999999;stroke-width:0.0325086"
       d="M 2.7698923,22.632605 0.79375,20.658959 V 12.683558 4.7081547 L 2.7538272,2.7509523 4.7139041,0.79375 h 7.9700309 7.97003 l 1.976143,1.9736451 1.976142,1.9736455 v 7.9591584 7.959158 l -1.976342,1.973446 -1.976341,1.973447 H 12.699801 4.7460343 Z"
       id="path5324" />
    <circle
       style="fill:#000000;stroke-width:0.264583"
       id="path5330"
       cx="12.7"
       cy="12.7"
       r="8.4666662" />
    <rect
       style="fill:#000000;stroke-width:0.264131"
       id="rect5332"
       width="8.1878633"
       height="0.79241681"
       x="3.3648133"
       y="-0.41582215"
       transform="matrix(0.70761243,0.70660077,-0.70186095,0.71231398,0,0)" />
    <rect
       style="fill:#000000;stroke-width:0.264131"
       id="rect5334"
       width="8.1878633"
       height="0.79241681"
       x="24.362635"
       y="-0.39494357"
       transform="matrix(0.70761243,0.70660077,-0.70186095,0.71231398,0,0)" />
    <rect
       style="fill:#000000;stroke-width:0.264131"
       id="rect5340"
       width="8.1878633"
       height="0.79241681"
       x="-14.482128"
       y="-18.364641"
       transform="matrix(-0.70660077,0.70761243,-0.71231398,-0.70186095,0,0)" />
    <rect
       style="fill:#000000;stroke-width:0.264131"
       id="rect5342"
       width="8.1878633"
       height="0.79241681"
       x="6.5156932"
       y="-18.343763"
       transform="matrix(-0.70660077,0.70761243,-0.71231398,-0.70186095,0,0)" />
  </g>
</svg>
